<svg xmlns="http://www.w3.org/2000/svg" xmlns:xlink="http://www.w3.org/1999/xlink" version="1.1" width="1000" height="1000" viewBox="0 0 1000 1000" xml:space="preserve">
<desc>Created with Fabric.js 3.5.0</desc>
<defs>
</defs>
<rect x="0" y="0" width="100%" height="100%" fill="#ffffff"/>
<g transform="matrix(0.9918 0 0 0.9918 497.2661 498.6322)" id="757236">
<g style="" vector-effect="non-scaling-stroke">
		<g transform="matrix(1 0 0 1 -450 -450)">
<rect style="stroke: none; stroke-width: 1; stroke-dasharray: none; stroke-linecap: butt; stroke-dashoffset: 0; stroke-linejoin: miter; stroke-miterlimit: 4; is-custom-font: none; font-file-url: none; fill: rgb(255,255,255); fill-rule: nonzero; opacity: 1;" x="-50" y="-50" rx="0" ry="0" width="100" height="100"/>
</g>
		<g transform="matrix(2.0765 0 0 2.235 4.0977 -23.2172)" id="591661">
<path style="stroke: none; stroke-width: 1; stroke-dasharray: none; stroke-linecap: butt; stroke-dashoffset: 0; stroke-linejoin: miter; stroke-miterlimit: 4; is-custom-font: none; font-file-url: none; fill: rgb(254,254,254); fill-opacity: 0; fill-rule: nonzero; opacity: 1;" vector-effect="non-scaling-stroke" transform=" translate(-250, -250)" d="M 0 0 C 165 0 330 0 500 0 C 500 165 500 330 500 500 C 335 500 170 500 0 500 C 0 335 0 170 0 0 Z" stroke-linecap="round"/>
</g>
		<g transform="matrix(2.0765 0 0 2.235 4.0976 56.7353)" id="591661">
<path style="stroke: none; stroke-width: 1; stroke-dasharray: none; stroke-linecap: butt; stroke-dashoffset: 0; stroke-linejoin: miter; stroke-miterlimit: 4; is-custom-font: none; font-file-url: none; fill: rgb(249,249,249); fill-rule: nonzero; opacity: 1;" vector-effect="non-scaling-stroke" transform=" translate(-5.5806, -60.1435)" d="M 0 0 C 2.6564449 -0.00431475 5.31113755 -0.04066127 7.96728516 -0.07861328 C 36.35787412 -0.27064875 64.56754592 5.1338743 92.42425537 10.09143066 C 95.52373748 10.64055902 98.6248436 11.18019366 101.72599983 11.71977425 C 104.75150278 12.24683734 107.77628685 12.77792822 110.80083847 13.31042099 C 112.22394025 13.56081442 113.64718766 13.81038176 115.07059097 14.05905533 C 117.03959873 14.40402274 119.00761483 14.75463575 120.97558594 15.10546875 C 122.08628448 15.30214142 123.19698303 15.49881409 124.34133911 15.70144653 C 127.81568998 16.41917725 131.17830712 17.36914658 134.58056641 18.37060547 C 135.93912788 18.6503358 137.30352648 18.90486601 138.67431641 19.11669922 C 139.74456055 19.28709717 139.74456055 19.28709717 140.83642578 19.4609375 C 141.57699219 19.57550293 142.31755859 19.69006836 143.08056641 19.80810547 C 149.10087396 20.77610098 155.09979275 21.80607967 161.08056641 22.99560547 C 162.28712891 23.23537109 163.49369141 23.47513672 164.73681641 23.72216797 C 167.58056641 24.37060547 167.58056641 24.37060547 169.58056641 25.37060547 C 169.43794229 26.93340167 169.29131129 28.49583242 169.14306641 30.05810547 C 169.06185547 30.92822266 168.98064453 31.79833984 168.89697266 32.69482422 C 168.58958966 35.29429767 168.10806332 37.80820943 167.58056641 40.37060547 C 168.53346558 40.61387573 168.53346558 40.61387573 169.50561523 40.86206055 C 177.23045199 42.89469333 184.73616037 45.40650239 192.26806641 48.05810547 C 193.45851563 48.47382813 194.64896484 48.88955078 195.87548828 49.31787109 C 198.77836234 50.33212829 201.68000454 51.34975879 204.58056641 52.37060547 C 199.93770454 57.39709363 194.54065387 61.33616226 189.08056641 65.43310547 C 187.21560842 66.84016111 185.35101342 68.24769802 183.48681641 69.65576172 C 182.66503906 70.27330322 181.84326172 70.89084473 180.99658203 71.52709961 C 178.49311436 73.43733449 176.03228947 75.39454506 173.58056641 77.37060547 C 174.20926461 81.78981463 175.9063881 85.44741573 177.88916016 89.39404297 C 178.21594254 90.05844391 178.54272491 90.72284485 178.87940979 91.40737915 C 179.92010404 93.52290352 180.96813465 95.63465198 182.01806641 97.74560547 C 183.39844346 100.52101394 184.7710431 103.30007419 186.13916016 106.08154297 C 186.45380722 106.70781586 186.76845428 107.33408875 187.09263611 107.9793396 C 189.09890144 112.0601872 190.45100582 115.98938602 191.58056641 120.37060547 C 183.94114426 119.4209927 176.59835283 117.9310837 169.14306641 116.05810547 C 160.23044296 113.84752997 151.26138389 112.18031145 142.20556641 110.68310547 C 140.98297119 110.48096436 139.76037598 110.27882324 138.50073242 110.07055664 C 129.87826478 108.67744229 121.24129588 107.49557567 112.58056641 106.37060547 C 112.25056641 101.09060547 111.92056641 95.81060547 111.58056641 90.37060547 C 87.9275903 82.13257782 87.9275903 82.13257782 63.58056641 76.37060547 C 62.76724854 76.21285645 61.95393066 76.05510742 61.1159668 75.89257812 C 11.41848583 66.42681934 -51.45800637 66.38364355 -97.52099609 89.48779297 C -99.41943359 90.37060547 -99.41943359 90.37060547 -101.41943359 90.37060547 C -101.41943359 95.98060547 -101.41943359 101.59060547 -101.41943359 107.37060547 C -102.70849609 107.44537109 -103.99755859 107.52013672 -105.32568359 107.59716797 C -127.35633281 109.0875663 -149.26824227 113.145284 -170.58422852 118.8972168 C -174.02996487 119.82448749 -176.81813045 120.37060547 -180.41943359 120.37060547 C -178.74277973 114.5732523 -176.49072149 109.25122033 -173.81005859 103.85107422 C -173.47768188 103.18069122 -173.14530518 102.51030823 -172.80285645 101.8196106 C -171.40675025 99.01608313 -170.00294511 96.21662133 -168.58789062 93.42260742 C -167.54733236 91.36213124 -166.52160539 89.29479434 -165.49755859 87.22607422 C -165.17370178 86.59686569 -164.84984497 85.96765717 -164.51617432 85.31938171 C -163.30376224 82.8533332 -162.39941179 80.91711103 -162.5012207 78.13818359 C -163.67859766 75.87170947 -164.99514081 74.77396753 -167.03271484 73.23388672 C -168.15540771 72.3736792 -168.15540771 72.3736792 -169.30078125 71.49609375 C -170.10306152 70.89780762 -170.9053418 70.29952148 -171.73193359 69.68310547 C -172.54194824 69.06677246 -173.35196289 68.45043945 -174.18652344 67.81542969 C -176.59000701 65.99030668 -179.00346192 64.17915028 -181.41943359 62.37060547 C -182.70760819 61.39849782 -183.99541105 60.42589723 -185.28271484 59.45263672 C -187.98601101 57.41317118 -190.69887755 55.38701759 -193.41943359 53.37060547 C -192.03383503 50.59940835 -190.16440647 50.41785531 -187.35171509 49.46688843 C -186.64445282 49.23659943 -185.93719055 49.00631042 -185.20849609 48.76904297 C -184.48455658 48.52771637 -183.76061707 48.28638977 -183.01473999 48.03775024 C -181.48090058 47.52825979 -179.94583448 47.02244993 -178.40966797 46.52001953 C -176.05824822 45.75012859 -173.71132894 44.96759936 -171.36474609 44.18310547 C -169.8754135 43.69015976 -168.38583779 43.19794785 -166.89599609 42.70654297 C -165.84117538 42.35503677 -165.84117538 42.35503677 -164.76504517 41.99642944 C -161.85916529 41.05125373 -159.49681932 40.37060547 -156.41943359 40.37060547 C -156.56380859 39.79052734 -156.70818359 39.21044922 -156.85693359 38.61279297 C -157.92832787 34.10400872 -158.65889295 30.040063 -158.41943359 25.37060547 C -153.66758136 23.18121901 -148.77170076 22.30023674 -143.66943359 21.30810547 C -142.6273877 21.10258057 -141.5853418 20.89705566 -140.51171875 20.68530273 C -128.28983438 18.30249919 -116.04088033 16.06047344 -103.79443359 13.80810547 C -102.76451294 13.61860321 -101.73459229 13.42910095 -100.67346191 13.2338562 C -28.61636341 -0.00513667 -28.61636341 -0.00513667 0 0 Z" stroke-linecap="round"/>
</g>
		<g transform="matrix(2.0765 0 0 2.235 4.3688 -181.9022)" id="591661">
<path style="stroke: none; stroke-width: 1; stroke-dasharray: none; stroke-linecap: butt; stroke-dashoffset: 0; stroke-linejoin: miter; stroke-miterlimit: 4; is-custom-font: none; font-file-url: none; fill: rgb(251,251,252); fill-rule: nonzero; opacity: 1;" vector-effect="non-scaling-stroke" transform=" translate(-89.1305, -55)" d="M 0 0 C 58.74 0 117.48 0 178 0 C 178.99 3.3 179.98 6.6 181 10 C 183.22356265 13.44293571 185.08424335 15.69474778 189 17 C 191.66071359 17.40092944 194.32607274 17.69315589 197 18 C 198.844719 19.844719 198.1200219 22.44516412 198.12442017 24.8993988 C 198.12082489 25.74672073 198.11722961 26.59404266 198.11352539 27.46704102 C 198.11367142 28.35476196 198.11381744 29.24248291 198.1139679 30.15710449 C 198.11326843 33.10606284 198.10547448 36.05495887 198.09765625 39.00390625 C 198.09579219 41.04271917 198.09436823 43.08153254 198.09336853 45.12034607 C 198.08954241 50.49784574 198.07971132 55.87531858 198.06866455 61.25280762 C 198.05845245 66.73559201 198.05387134 72.21838072 198.04882812 77.70117188 C 198.03808914 88.46745973 198.02101159 99.23372764 198 110 C 191.8020227 109.50454764 185.73667193 108.88792469 179.6328125 107.66015625 C 178.25326191 107.39038533 176.87335864 107.1224136 175.49316406 106.85595703 C 174.4063031 106.64607147 174.4063031 106.64607147 173.29748535 106.4319458 C 143.97108856 100.91834636 115.16525907 96.8856368 85.3125 96.75 C 84.01587433 96.74155563 84.01587433 96.74155563 82.6930542 96.73294067 C 66.15159932 96.65564416 50.0165163 98.19385006 33.6875 100.8125 C 32.62208984 100.97991699 31.55667969 101.14733398 30.45898438 101.31982422 C 21.63316234 102.71652456 12.81555291 104.16500988 4 105.625 C 2.75436279 105.8310083 1.50872559 106.0370166 0.2253418 106.24926758 C -1.55682739 106.54740356 -1.55682739 106.54740356 -3.375 106.8515625 C -4.41398438 107.02510254 -5.45296875 107.19864258 -6.5234375 107.37744141 C -11.02823547 108.18412925 -15.51241563 109.10248313 -20 110 C -20 79.64 -20 49.28 -20 18 C -14.555 17.01 -14.555 17.01 -9 16 C -2.80594818 11.91456156 -2.781744 7.64979599 0 0 Z" stroke-linecap="round"/>
</g>
		<g transform="matrix(2.0765 0 0 2.235 4.0087 175.6671)" id="591661">
<path style="stroke: none; stroke-width: 1; stroke-dasharray: none; stroke-linecap: butt; stroke-dashoffset: 0; stroke-linejoin: miter; stroke-miterlimit: 4; is-custom-font: none; font-file-url: none; fill: rgb(250,250,250); fill-rule: nonzero; opacity: 1;" vector-effect="non-scaling-stroke" transform=" translate(-2.082, -37.2364)" d="M 0 0 C 0.8839444 -0.00100708 1.76788879 -0.00201416 2.67861938 -0.00305176 C 18.3273805 0.00895167 33.63176333 0.89522907 49.125 3.25 C 50.55513428 3.4668042 50.55513428 3.4668042 52.01416016 3.68798828 C 69.63187649 6.47558209 86.64107132 11.45188343 103.125 18.25 C 102.86523752 29.67954895 93.70701437 40.36702018 86.125 48.25 C 63.03641641 69.16334691 34.06712604 74.43827555 3.86328125 74.43530273 C 1.39305232 74.43748406 -1.07672483 74.45569514 -3.546875 74.47460938 C -32.92758021 74.58001446 -61.49941495 67.63738791 -83.33642578 46.84472656 C -89.54218357 40.41248126 -98.67177542 29.67004919 -98.9609375 20.53515625 C -98.93257812 19.78105469 -98.90421875 19.02695312 -98.875 18.25 C -91.05928043 14.42828542 -83.26690315 11.533218 -74.875 9.25 C -74.14055664 9.04874512 -73.40611328 8.84749023 -72.64941406 8.64013672 C -59.10325744 4.99224358 -45.58134291 2.93133302 -31.63183594 1.53222656 C -29.94563615 1.35960462 -28.26074862 1.1724021 -26.57910156 0.95996094 C -17.75838979 -0.10217915 -8.87135835 0.00701285 0 0 Z" stroke-linecap="round"/>
</g>
		<g transform="matrix(2.0765 0 0 2.235 4.0976 56.7353)" id="591661">
<path style="stroke: none; stroke-width: 1; stroke-dasharray: none; stroke-linecap: butt; stroke-dashoffset: 0; stroke-linejoin: miter; stroke-miterlimit: 4; is-custom-font: none; font-file-url: none; fill: rgb(18,18,18); fill-rule: nonzero; opacity: 1;" vector-effect="non-scaling-stroke" transform=" translate(-5.5806, -60.1435)" d="M 0 0 C 2.6564449 -0.00431475 5.31113755 -0.04066127 7.96728516 -0.07861328 C 36.35787412 -0.27064875 64.56754592 5.1338743 92.42425537 10.09143066 C 95.52373748 10.64055902 98.6248436 11.18019366 101.72599983 11.71977425 C 104.75150278 12.24683734 107.77628685 12.77792822 110.80083847 13.31042099 C 112.22394025 13.56081442 113.64718766 13.81038176 115.07059097 14.05905533 C 117.03959873 14.40402274 119.00761483 14.75463575 120.97558594 15.10546875 C 122.08628448 15.30214142 123.19698303 15.49881409 124.34133911 15.70144653 C 127.81568998 16.41917725 131.17830712 17.36914658 134.58056641 18.37060547 C 135.93912788 18.6503358 137.30352648 18.90486601 138.67431641 19.11669922 C 139.74456055 19.28709717 139.74456055 19.28709717 140.83642578 19.4609375 C 141.57699219 19.57550293 142.31755859 19.69006836 143.08056641 19.80810547 C 149.10087396 20.77610098 155.09979275 21.80607967 161.08056641 22.99560547 C 162.28712891 23.23537109 163.49369141 23.47513672 164.73681641 23.72216797 C 167.58056641 24.37060547 167.58056641 24.37060547 169.58056641 25.37060547 C 169.43794229 26.93340167 169.29131129 28.49583242 169.14306641 30.05810547 C 169.06185547 30.92822266 168.98064453 31.79833984 168.89697266 32.69482422 C 168.58958966 35.29429767 168.10806332 37.80820943 167.58056641 40.37060547 C 168.53346558 40.61387573 168.53346558 40.61387573 169.50561523 40.86206055 C 177.23045199 42.89469333 184.73616037 45.40650239 192.26806641 48.05810547 C 193.45851563 48.47382813 194.64896484 48.88955078 195.87548828 49.31787109 C 198.77836234 50.33212829 201.68000454 51.34975879 204.58056641 52.37060547 C 199.93770454 57.39709363 194.54065387 61.33616226 189.08056641 65.43310547 C 187.21560842 66.84016111 185.35101342 68.24769802 183.48681641 69.65576172 C 182.66503906 70.27330322 181.84326172 70.89084473 180.99658203 71.52709961 C 178.49311436 73.43733449 176.03228947 75.39454506 173.58056641 77.37060547 C 174.20926461 81.78981463 175.9063881 85.44741573 177.88916016 89.39404297 C 178.21594254 90.05844391 178.54272491 90.72284485 178.87940979 91.40737915 C 179.92010404 93.52290352 180.96813465 95.63465198 182.01806641 97.74560547 C 183.39844346 100.52101394 184.7710431 103.30007419 186.13916016 106.08154297 C 186.45380722 106.70781586 186.76845428 107.33408875 187.09263611 107.9793396 C 189.09890144 112.0601872 190.45100582 115.98938602 191.58056641 120.37060547 C 183.94114426 119.4209927 176.59835283 117.9310837 169.14306641 116.05810547 C 160.23044296 113.84752997 151.26138389 112.18031145 142.20556641 110.68310547 C 140.98297119 110.48096436 139.76037598 110.27882324 138.50073242 110.07055664 C 129.87826478 108.67744229 121.24129588 107.49557567 112.58056641 106.37060547 C 112.25056641 101.09060547 111.92056641 95.81060547 111.58056641 90.37060547 C 87.9275903 82.13257782 87.9275903 82.13257782 63.58056641 76.37060547 C 62.76724854 76.21285645 61.95393066 76.05510742 61.1159668 75.89257812 C 11.41848583 66.42681934 -51.45800637 66.38364355 -97.52099609 89.48779297 C -99.41943359 90.37060547 -99.41943359 90.37060547 -101.41943359 90.37060547 C -101.41943359 95.98060547 -101.41943359 101.59060547 -101.41943359 107.37060547 C -102.70849609 107.44537109 -103.99755859 107.52013672 -105.32568359 107.59716797 C -127.35633281 109.0875663 -149.26824227 113.145284 -170.58422852 118.8972168 C -174.02996487 119.82448749 -176.81813045 120.37060547 -180.41943359 120.37060547 C -178.74277973 114.5732523 -176.49072149 109.25122033 -173.81005859 103.85107422 C -173.47768188 103.18069122 -173.14530518 102.51030823 -172.80285645 101.8196106 C -171.40675025 99.01608313 -170.00294511 96.21662133 -168.58789062 93.42260742 C -167.54733236 91.36213124 -166.52160539 89.29479434 -165.49755859 87.22607422 C -165.17370178 86.59686569 -164.84984497 85.96765717 -164.51617432 85.31938171 C -163.30376224 82.8533332 -162.39941179 80.91711103 -162.5012207 78.13818359 C -163.67859766 75.87170947 -164.99514081 74.77396753 -167.03271484 73.23388672 C -168.15540771 72.3736792 -168.15540771 72.3736792 -169.30078125 71.49609375 C -170.10306152 70.89780762 -170.9053418 70.29952148 -171.73193359 69.68310547 C -172.54194824 69.06677246 -173.35196289 68.45043945 -174.18652344 67.81542969 C -176.59000701 65.99030668 -179.00346192 64.17915028 -181.41943359 62.37060547 C -182.70760819 61.39849782 -183.99541105 60.42589723 -185.28271484 59.45263672 C -187.98601101 57.41317118 -190.69887755 55.38701759 -193.41943359 53.37060547 C -192.03383503 50.59940835 -190.16440647 50.41785531 -187.35171509 49.46688843 C -186.64445282 49.23659943 -185.93719055 49.00631042 -185.20849609 48.76904297 C -184.48455658 48.52771637 -183.76061707 48.28638977 -183.01473999 48.03775024 C -181.48090058 47.52825979 -179.94583448 47.02244993 -178.40966797 46.52001953 C -176.05824822 45.75012859 -173.71132894 44.96759936 -171.36474609 44.18310547 C -169.8754135 43.69015976 -168.38583779 43.19794785 -166.89599609 42.70654297 C -165.84117538 42.35503677 -165.84117538 42.35503677 -164.76504517 41.99642944 C -161.85916529 41.05125373 -159.49681932 40.37060547 -156.41943359 40.37060547 C -156.56380859 39.79052734 -156.70818359 39.21044922 -156.85693359 38.61279297 C -157.92832787 34.10400872 -158.65889295 30.040063 -158.41943359 25.37060547 C -153.66758136 23.18121901 -148.77170076 22.30023674 -143.66943359 21.30810547 C -142.6273877 21.10258057 -141.5853418 20.89705566 -140.51171875 20.68530273 C -128.28983438 18.30249919 -116.04088033 16.06047344 -103.79443359 13.80810547 C -102.76451294 13.61860321 -101.73459229 13.42910095 -100.67346191 13.2338562 C -28.61636341 -0.00513667 -28.61636341 -0.00513667 0 0 Z M -75.81982422 12.73388672 C -79.38742851 13.36494423 -82.95765584 13.97873365 -86.52880859 14.58935547 C -100.82818586 17.05900456 -115.01522321 19.91073066 -129.18896484 23.01904297 C -135.35028482 24.36883342 -141.52892374 25.58886073 -147.73193359 26.72998047 C -150.73262157 27.33750832 -150.73262157 27.33750832 -154.41943359 29.37060547 C -153.42943359 33.66060547 -152.43943359 37.95060547 -151.41943359 42.37060547 C -157.93143407 44.62020563 -164.50115367 46.59570293 -171.1262207 48.48071289 C -175.9923999 49.88464585 -180.69551728 51.54267835 -185.41943359 53.37060547 C -181.13912345 57.91843499 -176.37194543 61.64234357 -171.41943359 65.43310547 C -169.83589586 66.65289225 -168.25255709 67.87293736 -166.66943359 69.09326172 C -165.93337891 69.65932129 -165.19732422 70.22538086 -164.43896484 70.80859375 C -162.07701603 72.63544923 -159.74146787 74.49331566 -157.41943359 76.37060547 C -158.05037136 80.84903693 -159.79759464 84.56761631 -161.79833984 88.56982422 C -162.12986557 89.24608353 -162.4613913 89.92234283 -162.80296326 90.61909485 C -163.85713621 92.76818227 -164.91885303 94.91341204 -165.98193359 97.05810547 C -167.04790612 99.21382418 -168.11213497 101.37033389 -169.1716156 103.5292511 C -169.82982153 104.87005655 -170.49187065 106.20898347 -171.15809631 107.54582214 C -172.86271621 110.8032934 -172.86271621 110.8032934 -173.41943359 114.37060547 C -168.19197699 113.79489439 -163.27561073 112.9238557 -158.16943359 111.62060547 C -140.8526256 107.37398765 -123.11692447 104.48660981 -105.41943359 102.37060547 C -105.41943359 97.42060547 -105.41943359 92.47060547 -105.41943359 87.37060547 C -104.26443359 86.99935547 -103.10943359 86.62810547 -101.91943359 86.24560547 C -98.26702272 85.04325903 -94.70135923 83.69030081 -91.12988281 82.2668457 C -81.54964245 78.49798153 -71.811386 76.09216476 -61.76708984 73.89355469 C -59.81118576 73.45786973 -57.8639553 72.98347192 -55.91943359 72.49951172 C -23.96189426 64.78975535 13.11756961 64.53868542 45.58056641 69.37060547 C 47.17384766 69.60457031 47.17384766 69.60457031 48.79931641 69.84326172 C 69.41644872 72.97762305 89.46699453 77.82246693 108.85107422 85.59301758 C 111.61920539 86.69882752 113.56149757 87.37060547 116.58056641 87.37060547 C 116.58056641 92.32060547 116.58056641 97.27060547 116.58056641 102.37060547 C 124.62727293 103.75081696 124.62727293 103.75081696 132.70556641 104.92529297 C 145.25394348 106.62109317 157.52775529 109.22046708 169.86474609 112.03344727 C 170.54325623 112.18680542 171.22176636 112.34016357 171.9208374 112.49816895 C 173.78357614 112.9200277 175.64500642 113.34765205 177.50634766 113.77563477 C 180.71321062 114.49727866 180.71321062 114.49727866 184.58056641 114.37060547 C 183.19229419 109.86821632 181.4033692 105.78850108 179.28759766 101.58154297 C 178.65105624 100.2979236 178.01500267 99.01406222 177.37939453 97.72998047 C 176.38371015 95.72825796 175.38447032 93.72858262 174.37670898 91.73291016 C 173.39876964 89.79175876 172.43592377 87.843709 171.47509766 85.89404297 C 170.60655151 84.16033447 170.60655151 84.16033447 169.72045898 82.39160156 C 168.58056641 79.37060547 168.58056641 79.37060547 168.73071289 77.11572266 C 170.23667272 74.02333517 173.13000127 72.25152484 175.83056641 70.24560547 C 176.45012207 69.77276123 177.06967773 69.29991699 177.70800781 68.81274414 C 179.00452615 67.82417765 180.3042366 66.83978514 181.60693359 65.859375 C 184.1573115 63.93554961 186.68464505 61.98268776 189.21240234 60.02929688 C 191.66341223 58.13645815 194.12186172 56.25343414 196.58056641 54.37060547 C 193.32635797 52.20113318 190.43798412 51.2097556 186.72509766 49.98779297 C 186.06346115 49.76866241 185.40182465 49.54953186 184.72013855 49.32376099 C 182.61248819 48.62679568 180.50283539 47.93612774 178.39306641 47.24560547 C 176.96128913 46.77336334 175.52964681 46.3007118 174.09814453 45.82763672 C 170.59383718 44.67054311 167.08770693 43.51908721 163.58056641 42.37060547 C 164.24723307 37.7039388 164.91389974 33.03727214 165.58056641 28.37060547 C 164.91750488 28.24008789 164.25444336 28.10957031 163.57128906 27.97509766 C 160.44893866 27.35914945 157.3271559 26.74039868 154.20556641 26.12060547 C 153.05958984 25.8931665 151.91361328 25.66572754 150.73291016 25.43139648 C 144.32412603 24.14990879 137.94526624 22.79110598 131.58056641 21.30810547 C 123.57916912 19.4662224 115.5161 18.19122224 107.40332031 16.94506836 C 99.5481715 15.72518054 91.75378865 14.28580664 83.95556641 12.74560547 C 74.84071823 10.95622422 65.80604407 9.46734058 56.58056641 8.37060547 C 54.703932 8.12442774 52.8276582 7.87549277 50.95166016 7.62451172 C 49.94256592 7.48996582 48.93347168 7.35541992 47.89379883 7.21679688 C 45.91599373 6.95292139 43.93828462 6.68832489 41.96069336 6.42285156 C 2.18368496 1.18949069 -36.58165564 5.77601695 -75.81982422 12.73388672 Z" stroke-linecap="round"/>
</g>
		<g transform="matrix(2.0765 0 0 2.235 4.3688 -181.9022)" id="591661">
<path style="stroke: none; stroke-width: 1; stroke-dasharray: none; stroke-linecap: butt; stroke-dashoffset: 0; stroke-linejoin: miter; stroke-miterlimit: 4; is-custom-font: none; font-file-url: none; fill: rgb(21,21,21); fill-rule: nonzero; opacity: 1;" vector-effect="non-scaling-stroke" transform=" translate(-89.1305, -55)" d="M 0 0 C 58.74 0 117.48 0 178 0 C 178.99 3.3 179.98 6.6 181 10 C 183.22356265 13.44293571 185.08424335 15.69474778 189 17 C 191.66071359 17.40092944 194.32607274 17.69315589 197 18 C 198.844719 19.844719 198.1200219 22.44516412 198.12442017 24.8993988 C 198.12082489 25.74672073 198.11722961 26.59404266 198.11352539 27.46704102 C 198.11367142 28.35476196 198.11381744 29.24248291 198.1139679 30.15710449 C 198.11326843 33.10606284 198.10547448 36.05495887 198.09765625 39.00390625 C 198.09579219 41.04271917 198.09436823 43.08153254 198.09336853 45.12034607 C 198.08954241 50.49784574 198.07971132 55.87531858 198.06866455 61.25280762 C 198.05845245 66.73559201 198.05387134 72.21838072 198.04882812 77.70117188 C 198.03808914 88.46745973 198.02101159 99.23372764 198 110 C 191.8020227 109.50454764 185.73667193 108.88792469 179.6328125 107.66015625 C 178.25326191 107.39038533 176.87335864 107.1224136 175.49316406 106.85595703 C 174.4063031 106.64607147 174.4063031 106.64607147 173.29748535 106.4319458 C 143.97108856 100.91834636 115.16525907 96.8856368 85.3125 96.75 C 84.01587433 96.74155563 84.01587433 96.74155563 82.6930542 96.73294067 C 66.15159932 96.65564416 50.0165163 98.19385006 33.6875 100.8125 C 32.62208984 100.97991699 31.55667969 101.14733398 30.45898438 101.31982422 C 21.63316234 102.71652456 12.81555291 104.16500988 4 105.625 C 2.75436279 105.8310083 1.50872559 106.0370166 0.2253418 106.24926758 C -1.55682739 106.54740356 -1.55682739 106.54740356 -3.375 106.8515625 C -4.41398438 107.02510254 -5.45296875 107.19864258 -6.5234375 107.37744141 C -11.02823547 108.18412925 -15.51241563 109.10248313 -20 110 C -20 79.64 -20 49.28 -20 18 C -14.555 17.01 -14.555 17.01 -9 16 C -2.80594818 11.91456156 -2.781744 7.64979599 0 0 Z M 3 4 C 0.37194493 10.45309242 0.37194493 10.45309242 -2 17 C -3.8125 18.0625 -3.8125 18.0625 -6 19 C -6.61875 19.350625 -7.2375 19.70125 -7.875 20.0625 C -10 21 -10 21 -16 22 C -16 49.39 -16 76.78 -16 105 C -10.77851812 104.34731477 -5.68097739 103.64116531 -0.51171875 102.73046875 C 0.91834724 102.48055027 2.34844285 102.23080125 3.77856445 101.98120117 C 4.51837555 101.85151947 5.25818665 101.72183777 6.02041626 101.58822632 C 17.93316207 99.50551412 29.85332275 97.48709436 41.8125 95.6875 C 42.84608643 95.52854248 43.87967285 95.36958496 44.94458008 95.20581055 C 58.86402534 93.15382328 72.7688446 92.76311091 86.8125 92.75 C 87.66761169 92.74866058 88.52272339 92.74732117 89.40374756 92.74594116 C 102.87548695 92.75049317 116.00015933 93.51580585 129.32958984 95.58984375 C 131.87911564 95.98143301 134.42997612 96.32752073 136.98828125 96.65625 C 145.23746778 97.73669462 153.43248937 99.05732306 161.62109375 100.5234375 C 162.3807695 100.65922714 163.14044525 100.79501678 163.92314148 100.93492126 C 167.7384813 101.61888327 171.55184903 102.31206868 175.36303711 103.01879883 C 176.78107079 103.27694583 178.19912025 103.5350062 179.6171875 103.79296875 C 181.49833252 104.14137817 181.49833252 104.14137817 183.41748047 104.49682617 C 187.55237965 105.16226854 187.55237965 105.16226854 194 105 C 194 77.61 194 50.22 194 22 C 191.36 21.34 188.72 20.68 186 20 C 183.625 18.375 183.625 18.375 182 17 C 181.34 17 180.68 17 180 17 C 178.25009818 12.69254937 176.63438077 8.35834872 175 4 C 118.24 4 61.48 4 3 4 Z" stroke-linecap="round"/>
</g>
		<g transform="matrix(2.0765 0 0 2.235 4.0976 -159.4748)" id="591661">
<path style="stroke: none; stroke-width: 1; stroke-dasharray: none; stroke-linecap: butt; stroke-dashoffset: 0; stroke-linejoin: miter; stroke-miterlimit: 4; is-custom-font: none; font-file-url: none; fill: rgb(39,36,37); fill-rule: nonzero; opacity: 1;" vector-effect="non-scaling-stroke" transform=" translate(-11.7388, -3.1342)" d="M 0 0 C 4.01695544 2.54034924 7.46205091 5.67725881 10.73876953 9.09960938 C 13.74102161 7.73132635 15.99428748 6.11986394 18.48876953 3.97460938 C 34.60507332 -8.73759065 52.56776111 -12.59728801 72.73876953 -10.90039062 C 81.76378978 -9.55166226 90.7659945 -7.93293212 96.48876953 -0.40039062 C 97.40916016 0.79070312 97.40916016 0.79070312 98.34814453 2.00585938 C 99.73876953 4.09960938 99.73876953 4.09960938 99.73876953 6.09960938 C 94.87609105 6.55195156 91.20330423 5.7342841 86.55126953 4.22460938 C 69.09610092 -1.39452025 51.57019179 -1.80383899 34.56298828 5.45507812 C 29.98277275 7.81803856 26.48949041 10.26135815 22.92626953 13.97460938 C 19.38196053 17.2485278 16.52554038 17.73043828 11.73876953 17.97460938 C 5.66284223 17.66467897 2.84248218 16.3879549 -1.28076172 12.04492188 C -10.6311022 2.86056377 -24.93117752 0.14918929 -37.51123047 -0.08789062 C -47.71336078 0.01668702 -57.03567627 2.48127234 -66.78076172 5.29492188 C -70.08502692 6.05887096 -72.88675558 6.25463885 -76.26123047 6.09960938 C -71.10859114 -4.56349146 -71.10859114 -4.56349146 -65.89013672 -7.01367188 C -63.35910441 -7.76489151 -60.8422765 -8.34703861 -58.26123047 -8.90039062 C -57.20677734 -9.24585938 -56.15232422 -9.59132812 -55.06591797 -9.94726562 C -36.29270811 -14.65020526 -16.37328353 -9.44463636 0 0 Z" stroke-linecap="round"/>
</g>
		<g transform="matrix(2.0765 0 0 2.235 4.0087 175.6671)" id="591661">
<path style="stroke: none; stroke-width: 1; stroke-dasharray: none; stroke-linecap: butt; stroke-dashoffset: 0; stroke-linejoin: miter; stroke-miterlimit: 4; is-custom-font: none; font-file-url: none; fill: rgb(18,18,18); fill-rule: nonzero; opacity: 1;" vector-effect="non-scaling-stroke" transform=" translate(-2.082, -37.2364)" d="M 0 0 C 0.8839444 -0.00100708 1.76788879 -0.00201416 2.67861938 -0.00305176 C 18.3273805 0.00895167 33.63176333 0.89522907 49.125 3.25 C 50.55513428 3.4668042 50.55513428 3.4668042 52.01416016 3.68798828 C 69.63187649 6.47558209 86.64107132 11.45188343 103.125 18.25 C 102.86523752 29.67954895 93.70701437 40.36702018 86.125 48.25 C 63.03641641 69.16334691 34.06712604 74.43827555 3.86328125 74.43530273 C 1.39305232 74.43748406 -1.07672483 74.45569514 -3.546875 74.47460938 C -32.92758021 74.58001446 -61.49941495 67.63738791 -83.33642578 46.84472656 C -89.54218357 40.41248126 -98.67177542 29.67004919 -98.9609375 20.53515625 C -98.93257812 19.78105469 -98.90421875 19.02695312 -98.875 18.25 C -91.05928043 14.42828542 -83.26690315 11.533218 -74.875 9.25 C -74.14055664 9.04874512 -73.40611328 8.84749023 -72.64941406 8.64013672 C -59.10325744 4.99224358 -45.58134291 2.93133302 -31.63183594 1.53222656 C -29.94563615 1.35960462 -28.26074862 1.1724021 -26.57910156 0.95996094 C -17.75838979 -0.10217915 -8.87135835 0.00701285 0 0 Z M -94.875 20.25 C -91.60082765 34.61275371 -78.71954432 47.29325317 -66.875 55.25 C -49.82753622 65.1528709 -31.17285064 70.33129736 -11.4921875 70.453125 C -10.7235437 70.46022995 -9.9548999 70.4673349 -9.16296387 70.47465515 C 24.98682763 70.71829347 57.84146853 68.95494099 84.125 44.25 C 94.33860845 33.5863484 94.33860845 33.5863484 99.125 20.25 C 37.89601639 -1.55122901 -33.90517885 -3.08839133 -94.875 20.25 Z" stroke-linecap="round"/>
</g>
		<g transform="matrix(2.0765 0 0 2.235 -70.6564 -212.945)" id="591661">
<path style="stroke: none; stroke-width: 1; stroke-dasharray: none; stroke-linecap: butt; stroke-dashoffset: 0; stroke-linejoin: miter; stroke-miterlimit: 4; is-custom-font: none; font-file-url: none; fill: rgb(83,114,255); fill-rule: nonzero; opacity: 1;" vector-effect="non-scaling-stroke" transform=" translate(-2.668, -22.7942)" d="M 0 0 C 1.31937561 0.01057434 1.31937561 0.01057434 2.66540527 0.0213623 C 5.93774694 0.05787045 9.20917479 0.15560263 12.48046875 0.24609375 C 23.46328125 0.46265625 23.46328125 0.46265625 34.66796875 0.68359375 C 34.66796875 15.53359375 34.66796875 30.38359375 34.66796875 45.68359375 C 33.67796875 44.36359375 32.68796875 43.04359375 31.66796875 41.68359375 C 24.55052555 32.40879082 17.22193978 28.24330543 5.66796875 26.68359375 C 1.49622952 26.4423858 -2.65464869 26.44799056 -6.83203125 26.49609375 C -8.42724609 26.49706055 -8.42724609 26.49706055 -10.0546875 26.49804688 C -16.53572534 26.53383175 -22.89807277 26.90271248 -29.33203125 27.68359375 C -26.68492641 22.84177613 -23.82315542 18.49956476 -20.39453125 14.18359375 C -19.5508171 13.11167253 -18.70837181 12.03875139 -17.8671875 10.96484375 C -17.46433533 10.46569962 -17.06148315 9.96655548 -16.64642334 9.45228577 C -15.29925158 7.73010964 -15.29925158 7.73010964 -14.35394287 5.85594177 C -10.799832 -0.44667661 -6.79795924 -0.2573296 0 0 Z" stroke-linecap="round"/>
</g>
		<g transform="matrix(2.0765 0 0 2.235 78.8517 -214.8458)" id="591661">
<path style="stroke: none; stroke-width: 1; stroke-dasharray: none; stroke-linecap: butt; stroke-dashoffset: 0; stroke-linejoin: miter; stroke-miterlimit: 4; is-custom-font: none; font-file-url: none; fill: rgb(83,114,255); fill-rule: nonzero; opacity: 1;" vector-effect="non-scaling-stroke" transform=" translate(-32, -21.26)" d="M 0 0 C 43.76258521 -2.40314774 43.76258521 -2.40314774 50.9296875 3.984375 C 54.05781926 7.85152884 56.19568714 12.02028988 58 16.64111328 C 59.50125064 20.18239348 61.65930785 22.96286951 64 26 C 60.61711095 27.12762968 58.4435756 26.74989039 55 26 C 50.44008617 25.75337678 45.87842754 25.76885773 41.3125 25.75 C 40.08337891 25.729375 38.85425781 25.70875 37.58789062 25.6875 C 26.96917123 25.64219346 17.44225099 27.14831804 9 34 C 6.51228267 36.55150495 4.25266792 39.24200387 2 42 C 1.34 42.66 0.68 43.32 0 44 C 0 29.48 0 14.96 0 0 Z" stroke-linecap="round"/>
</g>
		<g transform="matrix(2.0765 0 0 2.235 216.6205 30.1352)" id="591661">
<path style="stroke: none; stroke-width: 1; stroke-dasharray: none; stroke-linecap: butt; stroke-dashoffset: 0; stroke-linejoin: miter; stroke-miterlimit: 4; is-custom-font: none; font-file-url: none; fill: rgb(10,10,10); fill-rule: nonzero; opacity: 1;" vector-effect="non-scaling-stroke" transform=" translate(-8.3467, -23.8713)" d="M 0 0 C 7.875 0.875 7.875 0.875 9 2 C 9.82207199 11.32956118 8.18077024 20.77523251 7 30 C 10.63 21.75 14.26 13.5 18 5 C 20.97 5.33 23.94 5.66 27 6 C 28.20912306 9.62736917 27.70476077 10.55929676 26.5 14.125 C 24.22904571 21.13777083 22.22442371 28.21078227 20.25 35.3125 C 19.93224609 36.45283691 19.61449219 37.59317383 19.28710938 38.76806641 C 18.52331521 41.51165167 17.76092078 44.25561668 17 47 C 13.98968256 47.93423645 13.13349732 48.04449911 10 47 C 10.27714844 45.90300781 10.55429687 44.80601562 10.83984375 43.67578125 C 11.20579237 42.22137007 11.57167427 40.7669421 11.9375 39.3125 C 12.11990234 38.59126953 12.30230469 37.87003906 12.49023438 37.12695312 C 12.66748047 36.42119141 12.84472656 35.71542969 13.02734375 34.98828125 C 13.18968506 34.34415283 13.35202637 33.70002441 13.51928711 33.03637695 C 14.06995422 30.70366268 14.52994312 28.35028438 15 26 C 12.03 32.27 9.06 38.54 6 45 C 4.02 44.67 2.04 44.34 0 44 C 0.96355353 24.99544419 0.96355353 24.99544419 2 17 C 1.74605469 18.05058594 1.49210937 19.10117187 1.23046875 20.18359375 C -0.5735804 27.56859029 -2.44014513 34.83240636 -5 42 C -6.98 41.67 -8.96 41.34 -11 41 C -9.72111606 34.04227351 -8.05232225 27.28644665 -6.0625 20.5 C -5.68448242 19.19095703 -5.68448242 19.19095703 -5.29882812 17.85546875 C -3.57161255 11.89193671 -1.79324631 5.94396908 0 0 Z" stroke-linecap="round"/>
</g>
		<g transform="matrix(2.0765 0 0 2.235 109.4294 5.3283)" id="591661">
<path style="stroke: none; stroke-width: 1; stroke-dasharray: none; stroke-linecap: butt; stroke-dashoffset: 0; stroke-linejoin: miter; stroke-miterlimit: 4; is-custom-font: none; font-file-url: none; fill: rgb(9,9,9); fill-rule: nonzero; opacity: 1;" vector-effect="non-scaling-stroke" transform=" translate(-6.7256, -21.772)" d="M 0 0 C 2.0839403 0.11443603 4.16716493 0.24195547 6.25 0.375 C 7.41015625 0.44460937 8.5703125 0.51421875 9.765625 0.5859375 C 12.7546101 0.96858535 14.52864275 1.33353433 17 3 C 21.35198738 9.52798107 18.7943589 19.31028869 17.75 26.75 C 17.58564453 28.10931641 17.58564453 28.10931641 17.41796875 29.49609375 C 16.67923753 34.82273462 15.85798477 38.98427821 12 43 C 8.94140625 43.62109375 8.94140625 43.62109375 5.5625 43.4375 C 3.89380859 43.37369141 3.89380859 43.37369141 2.19140625 43.30859375 C -0.60842617 43.03786332 -3.2512709 42.57436566 -6 42 C -5.91959473 41.3922876 -5.83918945 40.7845752 -5.75634766 40.15844727 C -5.37799721 37.29329273 -5.00125728 34.42793018 -4.625 31.5625 C -4.48852051 30.52456299 -4.35204102 29.48662598 -4.21142578 28.41723633 C -3.28272968 21.30434306 -2.40964758 14.18765693 -1.64697266 7.05493164 C -1.10752417 2.21504835 -1.10752417 2.21504835 0 0 Z" stroke-linecap="round"/>
</g>
		<g transform="matrix(2.0765 0 0 2.235 -167.2135 21.0941)" id="591661">
<path style="stroke: none; stroke-width: 1; stroke-dasharray: none; stroke-linecap: butt; stroke-dashoffset: 0; stroke-linejoin: miter; stroke-miterlimit: 4; is-custom-font: none; font-file-url: none; fill: rgb(10,10,10); fill-rule: nonzero; opacity: 1;" vector-effect="non-scaling-stroke" transform=" translate(2.5, -21.8261)" d="M 0 0 C 3.89650219 2.47095261 4.96221587 5.58941745 6 10 C 6.125 13.625 6.125 13.625 6 17 C 6 21.50817136 6.47653325 21.65379713 9 25 C 9.94921875 27.91015625 9.94921875 27.91015625 10.6875 31.0625 C 10.93886719 32.10535156 11.19023437 33.14820313 11.44921875 34.22265625 C 12 37 12 37 12 40 C 9.03 40.495 9.03 40.495 6 41 C 3.72623708 36.03906272 2.21376034 31.32187227 1 26 C -0.98 25.67 -2.96 25.34 -5 25 C -4.67515625 26.32064453 -4.67515625 26.32064453 -4.34375 27.66796875 C -4.0653125 28.82941406 -3.786875 29.99085938 -3.5 31.1875 C -3.2215625 32.33605469 -2.943125 33.48460937 -2.65625 34.66796875 C -2.08504615 37.56818829 -1.86716221 40.06096385 -2 43 C -4.97 43.495 -4.97 43.495 -8 44 C -10.34401476 35.74599738 -12.33075823 27.43846844 -14.1875 19.0625 C -14.59645508 17.25555664 -14.59645508 17.25555664 -15.01367188 15.41210938 C -15.27083984 14.25646484 -15.52800781 13.10082031 -15.79296875 11.91015625 C -16.0252417 10.86996338 -16.25751465 9.82977051 -16.49682617 8.75805664 C -17 6 -17 6 -17 2 C -11.46652553 -0.39285382 -5.93317489 -0.7428075 0 0 Z" stroke-linecap="round"/>
</g>
		<g transform="matrix(2.0765 0 0 2.235 54.9719 1.3678)" id="591661">
<path style="stroke: none; stroke-width: 1; stroke-dasharray: none; stroke-linecap: butt; stroke-dashoffset: 0; stroke-linejoin: miter; stroke-miterlimit: 4; is-custom-font: none; font-file-url: none; fill: rgb(9,9,9); fill-rule: nonzero; opacity: 1;" vector-effect="non-scaling-stroke" transform=" translate(-2.5, -22)" d="M 0 0 C 3.3 0 6.6 0 10 0 C 11.89727855 14.66512791 13.4890307 29.21712955 14 44 C 10.535 43.505 10.535 43.505 7 43 C 7 40.36 7 37.72 7 35 C 4.03 35 1.06 35 -2 35 C -2.33 37.64 -2.66 40.28 -3 43 C -4.98 43 -6.96 43 -9 43 C -8.3960365 37.68990874 -7.55654741 32.55024101 -6.40625 27.32421875 C -6.25466431 26.63237991 -6.10307861 25.94054108 -5.94689941 25.22773743 C -5.62922195 23.78125217 -5.30982875 22.33514271 -4.98876953 20.8894043 C -4.49755711 18.6764948 -4.01203021 16.46239394 -3.52734375 14.24804688 C -1.15097473 3.45292418 -1.15097473 3.45292418 0 0 Z" stroke-linecap="round"/>
</g>
		<g transform="matrix(2.0765 0 0 2.235 -42.5953 0.2503)" id="591661">
<path style="stroke: none; stroke-width: 1; stroke-dasharray: none; stroke-linecap: butt; stroke-dashoffset: 0; stroke-linejoin: miter; stroke-miterlimit: 4; is-custom-font: none; font-file-url: none; fill: rgb(9,9,9); fill-rule: nonzero; opacity: 1;" vector-effect="non-scaling-stroke" transform=" translate(-7.5136, -21.5)" d="M 0 0 C 3.3 0 6.6 0 10 0 C 11.34931345 5.32941124 12.67918526 10.6634576 14 16 C 14.22445801 16.90363281 14.44891602 17.80726563 14.68017578 18.73828125 C 15.37659128 21.55314304 16.06426767 24.37001852 16.75 27.1875 C 16.97260498 28.08364014 17.19520996 28.97978027 17.42456055 29.90307617 C 17.7326062 31.1788855 17.7326062 31.1788855 18.046875 32.48046875 C 18.23088867 33.23223389 18.41490234 33.98399902 18.60449219 34.75854492 C 19.03729752 37.21137562 19.066776 39.51423601 19 42 C 17.02 42 15.04 42 13 42 C 11.5393715 39.35261084 11 38.10551666 11 35 C 8.36 35.33 5.72 35.66 3 36 C 2.67 38.31 2.34 40.62 2 43 C 0.02 43 -1.96 43 -4 43 C -2.96885857 28.62535804 -1.8711524 14.29241939 0 0 Z" stroke-linecap="round"/>
</g>
		<g transform="matrix(2.0765 0 0 2.235 -117.4249 8.7363)" id="591661">
<path style="stroke: none; stroke-width: 1; stroke-dasharray: none; stroke-linecap: butt; stroke-dashoffset: 0; stroke-linejoin: miter; stroke-miterlimit: 4; is-custom-font: none; font-file-url: none; fill: rgb(13,13,13); fill-rule: nonzero; opacity: 1;" vector-effect="non-scaling-stroke" transform=" translate(0.5228, -22.2969)" d="M 0 0 C 2.31 0 4.62 0 7 0 C 12.75862218 30.81858375 12.75862218 30.81858375 11 39 C 8.75381372 41.85842803 7.25397065 43.67857751 3.68359375 44.59375 C 0.29679302 44.45238788 -2.33125121 44.30865329 -5.4375 42.875 C -9.50446707 37.99463951 -9.72603448 30.95597157 -10.5625 24.875 C -10.81204452 23.10131434 -11.06328433 21.32786617 -11.31640625 19.5546875 C -11.42412354 18.77593262 -11.53184082 17.99717773 -11.64282227 17.19482422 C -11.96873544 14.9969694 -11.96873544 14.9969694 -12.53662109 12.86279297 C -13.09745278 10.60823777 -13.09661113 8.569557 -13.0625 6.25 C -13.05347656 5.45078125 -13.04445312 4.6515625 -13.03515625 3.828125 C -13.02355469 3.22484375 -13.01195312 2.6215625 -13 2 C -10.69 2 -8.38 2 -6 2 C -5.83564453 3.16789063 -5.83564453 3.16789063 -5.66796875 4.359375 C -4.1721262 14.91540212 -2.59085441 25.45793812 -1 36 C 0.65 36.33 2.3 36.66 4 37 C 3.6233388 28.07702609 2.73323315 19.490375 1.01635742 10.72485352 C 0.31478585 7.0947948 -0.16557377 3.7002138 0 0 Z" stroke-linecap="round"/>
</g>
		<g transform="matrix(2.0765 0 0 2.235 -265.4185 50.7594)" id="591661">
<path style="stroke: none; stroke-width: 1; stroke-dasharray: none; stroke-linecap: butt; stroke-dashoffset: 0; stroke-linejoin: miter; stroke-miterlimit: 4; is-custom-font: none; font-file-url: none; fill: rgb(10,10,10); fill-rule: nonzero; opacity: 1;" vector-effect="non-scaling-stroke" transform=" translate(-0.2066, -21.0992)" d="M 0 0 C 3.52848284 2.5525195 4.77301895 4.07461574 5.8125 8.3125 C 5.874375 9.199375 5.93625 10.08625 6 11 C 3 13 3 13 0 13 C -0.66 10.69 -1.32 8.38 -2 6 C -3.98 6.33 -5.96 6.66 -8 7 C -6.89736164 10.16720086 -5.79260621 13.33365947 -4.6875 16.5 C -4.37876953 17.386875 -4.07003906 18.27375 -3.75195312 19.1875 C -1.90158202 24.48540464 0.00809629 29.75363208 2 35 C 3.32 35 4.64 35 6 35 C 5.67 31.37 5.34 27.74 5 24 C 3.68 24 2.36 24 1 24 C 0.67 22.02 0.34 20.04 0 18 C 2.32916404 16.53348931 3.68911082 15.988686 6.46875 16.08984375 C 9 17 9 17 10.58203125 19.4765625 C 15.04277506 30.89040221 15.04277506 30.89040221 14 36 C 10.57700532 40.14362514 8.51357703 41.82631083 3.1875 42.4375 C 1.16796875 42.62109375 1.16796875 42.62109375 -1 42 C -6.03952028 37.24484136 -8.03168171 31.6231296 -10.3125 25.1875 C -10.67150391 24.24068359 -11.03050781 23.29386719 -11.40039062 22.31835938 C -13.57757364 16.29274618 -14.56302457 11.40835835 -14 5 C -10.3042928 0.0723904 -6.0145592 -1.01394868 0 0 Z" stroke-linecap="round"/>
</g>
		<g transform="matrix(2.0765 0 0 2.235 -220.8325 31.9162)" id="591661">
<path style="stroke: none; stroke-width: 1; stroke-dasharray: none; stroke-linecap: butt; stroke-dashoffset: 0; stroke-linejoin: miter; stroke-miterlimit: 4; is-custom-font: none; font-file-url: none; fill: rgb(10,10,10); fill-rule: nonzero; opacity: 1;" vector-effect="non-scaling-stroke" transform=" translate(5.3218, -22.6682)" d="M 0 0 C 1.12600501 3.68719386 2.25062251 7.37480954 3.375 11.0625 C 3.69210938 12.10083984 4.00921875 13.13917969 4.3359375 14.20898438 C 5.22857394 17.13794771 6.11536572 20.06861135 7 23 C 7.21696533 23.70801758 7.43393066 24.41603516 7.6574707 25.14550781 C 9.06697574 29.85867924 9.85986219 34.11525097 9 39 C 6.95800319 42.16180151 5.43392218 43.53844819 1.83984375 44.6953125 C -2.48874183 45.49021135 -2.48874183 45.49021135 -5 45 C -10.01373363 41.21134156 -11.4100214 36.98400308 -13.0625 31.1875 C -13.3114502 30.35887451 -13.56040039 29.53024902 -13.81689453 28.67651367 C -16.13285124 20.84989402 -18.13696599 12.94529208 -20 5 C -16.535 4.505 -16.535 4.505 -13 4 C -9.17870043 14.85698644 -6.10716808 25.92254105 -3 37 C -1.35 37 0.3 37 2 37 C 1.39447361 29.93836833 -0.48618821 23.50931998 -2.5625 16.75 C -3.21463274 14.62131621 -3.86197891 12.49115854 -4.50390625 10.359375 C -4.79080322 9.42577148 -5.0777002 8.49216797 -5.37329102 7.53027344 C -6 5 -6 5 -6 1 C -3 0 -3 0 0 0 Z" stroke-linecap="round"/>
</g>
		<g transform="matrix(2.0765 0 0 2.235 6.0383 -1.225)" id="591661">
<path style="stroke: none; stroke-width: 1; stroke-dasharray: none; stroke-linecap: butt; stroke-dashoffset: 0; stroke-linejoin: miter; stroke-miterlimit: 4; is-custom-font: none; font-file-url: none; fill: rgb(10,10,10); fill-rule: nonzero; opacity: 1;" vector-effect="non-scaling-stroke" transform=" translate(5.0656, -21.8399)" d="M 0 0 C 3.0625 1.875 3.0625 1.875 5 5 C 5.39189688 8.37753234 5.29553853 11.61772566 5 15 C 3.02 15 1.04 15 -1 15 C -1.33 12.69 -1.66 10.38 -2 8 C -4.07553648 7.4465236 -5.84365964 7 -8 7 C -7.67 16.57 -7.34 26.14 -7 36 C -5.35 36 -3.7 36 -2 36 C -1.505 31.545 -1.505 31.545 -1 27 C 0.98 27 2.96 27 5 27 C 5.60992433 36.67407755 5.60992433 36.67407755 3.5625 41.125 C -0.123989 43.82243098 -3.48072788 44.27438438 -8 44 C -11.27230668 42.74677617 -12.53650078 41.92178945 -14.10791016 38.79663086 C -15.87869836 33.24535037 -15.36933375 27.33924016 -15.375 21.5625 C -15.41173828 19.59700195 -15.41173828 19.59700195 -15.44921875 17.59179688 C -15.45308594 16.32529297 -15.45695313 15.05878906 -15.4609375 13.75390625 C -15.46915527 12.60220947 -15.47737305 11.4505127 -15.48583984 10.26391602 C -14.89500614 6.29464173 -13.47649204 4.11941084 -11 1 C -7.50525261 -0.7473737 -3.81321144 -0.55225821 0 0 Z" stroke-linecap="round"/>
</g>
		<g transform="matrix(2.0765 0 0 2.235 160.8435 15.5581)" id="591661">
<path style="stroke: none; stroke-width: 1; stroke-dasharray: none; stroke-linecap: butt; stroke-dashoffset: 0; stroke-linejoin: miter; stroke-miterlimit: 4; is-custom-font: none; font-file-url: none; fill: rgb(10,10,10); fill-rule: nonzero; opacity: 1;" vector-effect="non-scaling-stroke" transform=" translate(-5.4856, -22.3491)" d="M 0 0 C 1.74644393 0.14023645 3.49245997 0.28580768 5.23828125 0.43359375 C 6.69681519 0.55432251 6.69681519 0.55432251 8.18481445 0.67749023 C 11.6512939 1.07461272 14.69683101 1.89894367 18 3 C 18 4.98 18 6.96 18 9 C 14.04 8.67 10.08 8.34 6 8 C 5.34 11.63 4.68 15.26 4 19 C 6.64 19.33 9.28 19.66 12 20 C 12 21.98 12 23.96 12 26 C 8.7 25.67 5.4 25.34 2 25 C 1.34 28.96 0.68 32.92 0 37 C 1.0725 37.144375 2.145 37.28875 3.25 37.4375 C 5.91662949 37.83749442 8.41399729 38.27591924 11 39 C 11 40.65 11 42.3 11 44 C 6.64156793 45.23940347 3.54363011 44.66253286 -0.8125 43.5625 C -2.55466797 43.13130859 -2.55466797 43.13130859 -4.33203125 42.69140625 C -5.21246094 42.46324219 -6.09289062 42.23507812 -7 42 C -7.17167116 36.65673512 -6.56475056 31.88154935 -5.46875 26.66015625 C -5.31337769 25.89319931 -5.15800537 25.12624237 -4.9979248 24.33604431 C -4.50497647 21.91017971 -4.00265365 19.48637013 -3.5 17.0625 C -3.16213671 15.40833039 -2.82489094 13.75403453 -2.48828125 12.09960938 C -1.66598685 8.06491134 -0.83528509 4.03202777 0 0 Z" stroke-linecap="round"/>
</g>
		<g transform="matrix(2.0765 0 0 2.235 282.3487 47.1853)" id="591661">
<path style="stroke: none; stroke-width: 1; stroke-dasharray: none; stroke-linecap: butt; stroke-dashoffset: 0; stroke-linejoin: miter; stroke-miterlimit: 4; is-custom-font: none; font-file-url: none; fill: rgb(12,12,12); fill-rule: nonzero; opacity: 1;" vector-effect="non-scaling-stroke" transform=" translate(-8, -22.5)" d="M 0 0 C 5.875 0.875 5.875 0.875 7 2 C 7.07325168 4.86267567 7.09238205 7.700719 7.0625 10.5625 C 7.05798828 11.36880859 7.05347656 12.17511719 7.04882812 13.00585938 C 7.03700518 15.00393756 7.01906914 17.00197783 7 19 C 9.97 14.71 12.94 10.42 16 6 C 18.97 6.495 18.97 6.495 22 7 C 21.38484497 10.42991145 20.10245756 12.49024577 17.98046875 15.23046875 C 17.37009766 16.03419922 16.75972656 16.83792969 16.13085938 17.66601562 C 14.84909601 19.32908748 13.56528529 20.99058367 12.27929688 22.65039062 C 6.96922178 29.65434068 3.58312952 36.60482906 1 45 C -3.75 44.125 -3.75 44.125 -6 43 C -5.52140759 41.39566191 -5.04210442 39.79153584 -4.5625 38.1875 C -4.29566406 37.29417969 -4.02882813 36.40085937 -3.75390625 35.48046875 C -3.19612127 33.64526945 -2.60655425 31.81966274 -2 30 C -1.78092893 27.71838471 -1.60962421 25.43206247 -1.46484375 23.14453125 C -1.42186661 22.48289474 -1.37888947 21.82125824 -1.33460999 21.13957214 C -1.19849335 19.0307683 -1.06792653 16.92166266 -0.9375 14.8125 C -0.84606899 13.38083596 -0.75427636 11.94919497 -0.66210938 10.51757812 C -0.43721291 7.01197623 -0.21729171 3.50608242 0 0 Z" stroke-linecap="round"/>
</g>
		<g transform="matrix(2.0765 0 0 2.235 -23.5655 142.1088)" id="591661">
<path style="stroke: none; stroke-width: 1; stroke-dasharray: none; stroke-linecap: butt; stroke-dashoffset: 0; stroke-linejoin: miter; stroke-miterlimit: 4; is-custom-font: none; font-file-url: none; fill: rgb(17,17,17); fill-rule: nonzero; opacity: 1;" vector-effect="non-scaling-stroke" transform=" translate(-5.678, -10.9714)" d="M 0 0 C 7.49352358 -0.36853395 7.49352358 -0.36853395 9.73901367 1.26538086 C 11.94421541 4.29886748 11.38727964 7.95812133 11.3125 11.5625 C 11.31572266 12.34302734 11.31894531 13.12355469 11.32226562 13.92773438 C 11.26716981 19.73283019 11.26716981 19.73283019 9 22 C 6.31160615 22.26991906 3.70858064 22.08737357 1 22 C 0.02700844 17.14270355 -0.12038805 12.5499375 -0.0625 7.625 C -0.05798828 6.88894531 -0.05347656 6.15289062 -0.04882812 5.39453125 C -0.03715142 3.59631842 -0.01922011 1.79814803 0 0 Z" stroke-linecap="round"/>
</g>
		<g transform="matrix(2.0765 0 0 2.235 60.3272 144.7501)" id="591661">
<path style="stroke: none; stroke-width: 1; stroke-dasharray: none; stroke-linecap: butt; stroke-dashoffset: 0; stroke-linejoin: miter; stroke-miterlimit: 4; is-custom-font: none; font-file-url: none; fill: rgb(20,20,20); fill-rule: nonzero; opacity: 1;" vector-effect="non-scaling-stroke" transform=" translate(1.546, -10.9033)" d="M 0 0 C 3.375 0.75 3.375 0.75 4.375 1.75 C 4.87711722 8.39429526 4.37253288 14.40489555 2.375 20.75 C 1.375 21.75 1.375 21.75 -2.0625 21.9375 C -5.625 21.75 -5.625 21.75 -7.625 19.75 C -7.6867462 16.88321229 -7.62349633 14.16365899 -7.4375 11.3125 C -7.40591797 10.53583984 -7.37433594 9.75917969 -7.34179688 8.95898438 C -7.00300821 3.25849678 -7.00300821 3.25849678 -5.31518555 0.98803711 C -3.625 -0.25 -3.625 -0.25 0 0 Z" stroke-linecap="round"/>
</g>
		<g transform="matrix(2.0765 0 0 2.235 110.2591 5.8378)" id="591661">
<path style="stroke: none; stroke-width: 1; stroke-dasharray: none; stroke-linecap: butt; stroke-dashoffset: 0; stroke-linejoin: miter; stroke-miterlimit: 4; is-custom-font: none; font-file-url: none; fill: rgb(243,243,243); fill-rule: nonzero; opacity: 1;" vector-effect="non-scaling-stroke" transform=" translate(-2.1251, -15)" d="M 0 0 C 1.99954746 -0.04254356 4.00041636 -0.04080783 6 0 C 7.69099071 1.69099071 7.21252305 3.7420521 7.25 6.0625 C 7.13068182 25.86931818 7.13068182 25.86931818 3 30 C 1.00041636 30.04080783 -1.00045254 30.04254356 -3 30 C -3.21837589 23.58520815 -2.37467735 17.40982078 -1.5 11.0625 C -1.35691406 9.99708984 -1.21382813 8.93167969 -1.06640625 7.83398438 C -0.71502821 5.22207428 -0.35945229 2.61080903 0 0 Z" stroke-linecap="round"/>
</g>
		<g transform="matrix(2.0765 0 0 2.235 125.5729 155.5828)" id="591661">
<path style="stroke: none; stroke-width: 1; stroke-dasharray: none; stroke-linecap: butt; stroke-dashoffset: 0; stroke-linejoin: miter; stroke-miterlimit: 4; is-custom-font: none; font-file-url: none; fill: rgb(33,33,33); fill-rule: nonzero; opacity: 1;" vector-effect="non-scaling-stroke" transform=" translate(2.5, -11)" d="M 0 0 C 1.32 0 2.64 0 4 0 C 3.855625 1.03640625 3.71125 2.0728125 3.5625 3.140625 C 3.37485993 4.51039749 3.1873677 5.88019023 3 7.25 C 2.85691406 8.27287109 2.85691406 8.27287109 2.7109375 9.31640625 C 2.2654774 12.59371988 2 15.68384153 2 19 C 1.34 19 0.68 19 0 19 C 0 19.99 0 20.98 0 22 C -0.99 22 -1.98 22 -3 22 C -3 20.35 -3 18.7 -3 17 C -4.98 17 -6.96 17 -9 17 C -8.50897611 12.0604462 -7.10416465 9.11850373 -4.1875 5.125 C -3.15689453 3.67480469 -3.15689453 3.67480469 -2.10546875 2.1953125 C -1.41066406 1.47085937 -0.71585937 0.74640625 0 0 Z" stroke-linecap="round"/>
</g>
		<g transform="matrix(2.0765 0 0 2.235 -87.1304 148.8778)" id="591661">
<path style="stroke: none; stroke-width: 1; stroke-dasharray: none; stroke-linecap: butt; stroke-dashoffset: 0; stroke-linejoin: miter; stroke-miterlimit: 4; is-custom-font: none; font-file-url: none; fill: rgb(17,17,17); fill-rule: nonzero; opacity: 1;" vector-effect="non-scaling-stroke" transform=" translate(-1.0664, -11.25)" d="M 0 0 C 3 0.25 3 0.25 5 2.25 C 5 3.57 5 4.89 5 6.25 C 4.01 6.25 3.02 6.25 2 6.25 C 2 5.26 2 4.27 2 3.25 C 1.01 3.25 0.02 3.25 -1 3.25 C 0.36140127 7.70549507 2.30756614 9.50434405 6 12.25 C 7.38125018 15.01250036 7.19079306 17.19731099 7 20.25 C 5 22.25 5 22.25 2 22.5 C -1 22.25 -1 22.25 -3 20.25 C -3 18.93 -3 17.61 -3 16.25 C -2.01 16.25 -1.02 16.25 0 16.25 C 0 17.24 0 18.23 0 19.25 C 0.99 18.92 1.98 18.59 3 18.25 C 1.84019723 15.40321138 0.76648658 14.03926837 -1.5625 11.9375 C -4.53673023 8.65822052 -4.9174375 6.62581254 -5 2.25 C -3 0.25 -3 0.25 0 0 Z" stroke-linecap="round"/>
</g>
		<g transform="matrix(2.0765 0 0 2.235 93.1185 148.5985)" id="591661">
<path style="stroke: none; stroke-width: 1; stroke-dasharray: none; stroke-linecap: butt; stroke-dashoffset: 0; stroke-linejoin: miter; stroke-miterlimit: 4; is-custom-font: none; font-file-url: none; fill: rgb(24,24,24); fill-rule: nonzero; opacity: 1;" vector-effect="non-scaling-stroke" transform=" translate(1.1294, -11.125)" d="M 0 0 C 3 0.25 3 0.25 5 2.25 C 5.5625 4.875 5.5625 4.875 5 8.25 C 3.38615798 10.47904029 1.63013065 12.43214766 -0.2734375 14.41796875 C -2.17940899 16.33821784 -2.17940899 16.33821784 -4 19.25 C -2.02 19.25 -0.04 19.25 2 19.25 C 2 20.24 2 21.23 2 22.25 C -0.97 22.25 -3.94 22.25 -7 22.25 C -8 18.25 -8 18.25 -6.3125 15.25 C -4 12.25 -4 12.25 -1.8125 10.1875 C 0.32864518 7.89868963 0.6588103 6.32070734 1 3.25 C 0.01 3.25 -0.98 3.25 -2 3.25 C -2 4.57 -2 5.89 -2 7.25 C -3.32 7.25 -4.64 7.25 -6 7.25 C -4.92 0.41 -4.92 0.41 0 0 Z" stroke-linecap="round"/>
</g>
		<g transform="matrix(2.0765 0 0 2.235 27.7402 141.8236)" id="591661">
<path style="stroke: none; stroke-width: 1; stroke-dasharray: none; stroke-linecap: butt; stroke-dashoffset: 0; stroke-linejoin: miter; stroke-miterlimit: 4; is-custom-font: none; font-file-url: none; fill: rgb(21,21,21); fill-rule: nonzero; opacity: 1;" vector-effect="non-scaling-stroke" transform=" translate(0.1142, -11.1563)" d="M 0 0 C 1.7325 0.1546875 1.7325 0.1546875 3.5 0.3125 C 5.58246559 3.43619839 5.86387645 4.63310509 5.2578125 8.26171875 C 3.67754498 12.53821591 0.45690745 15.90781022 -2.5 19.3125 C -0.19 19.3125 2.12 19.3125 4.5 19.3125 C 4.5 20.3025 4.5 21.2925 4.5 22.3125 C 1.2 22.3125 -2.1 22.3125 -5.5 22.3125 C -5.97513975 19.1449017 -5.9698209 17.03627814 -4.19921875 14.30859375 C -3.10883144 12.93715195 -2.00984148 11.57250567 -0.90234375 10.21484375 C 0.7531907 7.96903518 1.3262278 6.09285526 1.5 3.3125 C 0.51 3.6425 -0.48 3.9725 -1.5 4.3125 C -1.83 5.3025 -2.16 6.2925 -2.5 7.3125 C -3.49 7.3125 -4.48 7.3125 -5.5 7.3125 C -5.625 4.9375 -5.625 4.9375 -5.5 2.3125 C -3.5 0.3125 -3.5 0.3125 0 0 Z" stroke-linecap="round"/>
</g>
		<g transform="matrix(2.0765 0 0 2.235 -1.0936 214.8103)" id="591661">
<path style="stroke: none; stroke-width: 1; stroke-dasharray: none; stroke-linecap: butt; stroke-dashoffset: 0; stroke-linejoin: miter; stroke-miterlimit: 4; is-custom-font: none; font-file-url: none; fill: rgb(91,120,255); fill-rule: nonzero; opacity: 1;" vector-effect="non-scaling-stroke" transform=" translate(-4.5, -7.5)" d="M 0 0 C 0.9075 0.185625 1.815 0.37125 2.75 0.5625 C 5.68314324 0.95734621 7.2644657 0.94691572 10 0 C 10.309375 1.093125 10.61875 2.18625 10.9375 3.3125 C 11.58337897 5.55407994 12.2623117 7.7869351 13 10 C 12.21625 10.0825 11.4325 10.165 10.625 10.25 C 7.85250896 10.72806339 7.85250896 10.72806339 6.6875 13.0625 C 6.3471875 14.0215625 6.3471875 14.0215625 6 15 C 5.34 15 4.68 15 4 15 C 3.79375 14.360625 3.5875 13.72125 3.375 13.0625 C 2.10461791 10.65074923 2.10461791 10.65074923 -1.125 10.25 C -2.548125 10.12625 -2.548125 10.12625 -4 10 C -3.525625 9.46375 -3.05125 8.9275 -2.5625 8.375 C -0.71813924 5.57157164 -0.37543153 3.30379742 0 0 Z" stroke-linecap="round"/>
</g>
		<g transform="matrix(2.0765 0 0 2.235 -117.4169 154.4653)" id="591661">
<path style="stroke: none; stroke-width: 1; stroke-dasharray: none; stroke-linecap: butt; stroke-dashoffset: 0; stroke-linejoin: miter; stroke-miterlimit: 4; is-custom-font: none; font-file-url: none; fill: rgb(17,17,17); fill-rule: nonzero; opacity: 1;" vector-effect="non-scaling-stroke" transform=" translate(2.5188, -11.5)" d="M 0 0 C 0 0.99 0 1.98 0 3 C -1.32 3.33 -2.64 3.66 -4 4 C -4.33 5.98 -4.66 7.96 -5 10 C -3.35 10 -1.7 10 0 10 C 0.33 10.99 0.66 11.98 1 13 C -0.32 13 -1.64 13 -3 13 C -3 14.98 -3 16.96 -3 19 C -0.69 19 1.62 19 4 19 C 4 19.99 4 20.98 4 22 C -0.95 22.495 -0.95 22.495 -6 23 C -6.50534727 20.27172635 -7.00443845 17.54255306 -7.5 14.8125 C -7.64308594 14.04357422 -7.78617188 13.27464844 -7.93359375 12.48242188 C -8.63238715 8.60578227 -9.19039017 4.958529 -9 1 C -5.846632 0.29925156 -3.27275026 0 0 0 Z" stroke-linecap="round"/>
</g>
		<g transform="matrix(2.0765 0 0 2.235 -59.2356 144.4078)" id="591661">
<path style="stroke: none; stroke-width: 1; stroke-dasharray: none; stroke-linecap: butt; stroke-dashoffset: 0; stroke-linejoin: miter; stroke-miterlimit: 4; is-custom-font: none; font-file-url: none; fill: rgb(31,31,31); fill-rule: nonzero; opacity: 1;" vector-effect="non-scaling-stroke" transform=" translate(-4.5, -11)" d="M 0 0 C 3.3 0 6.6 0 10 0 C 10 0.99 10 1.98 10 3 C 9.01 3 8.02 3 7 3 C 7.66 9.27 8.32 15.54 9 22 C 7.68 22 6.36 22 5 22 C 4.34 16.06 3.68 10.12 3 4 C 1.68 4 0.36 4 -1 4 C -0.67 2.68 -0.34 1.36 0 0 Z" stroke-linecap="round"/>
</g>
		<g transform="matrix(2.0765 0 0 2.235 -172.4079 0.2503)" id="591661">
<path style="stroke: none; stroke-width: 1; stroke-dasharray: none; stroke-linecap: butt; stroke-dashoffset: 0; stroke-linejoin: miter; stroke-miterlimit: 4; is-custom-font: none; font-file-url: none; fill: rgb(239,239,239); fill-rule: nonzero; opacity: 1;" vector-effect="non-scaling-stroke" transform=" translate(-3.9985, -6.5)" d="M 0 0 C 1.98 0 3.96 0 6 0 C 8.60018816 3.90028225 8.15085514 7.47434569 8 12 C 6.02 12.33 4.04 12.66 2 13 C -0.28571429 4.57142857 -0.28571429 4.57142857 0 0 Z" stroke-linecap="round"/>
</g>
		<g transform="matrix(2.0765 0 0 2.235 56.0517 -4.2197)" id="591661">
<path style="stroke: none; stroke-width: 1; stroke-dasharray: none; stroke-linecap: butt; stroke-dashoffset: 0; stroke-linejoin: miter; stroke-miterlimit: 4; is-custom-font: none; font-file-url: none; fill: rgb(216,216,216); fill-rule: nonzero; opacity: 1;" vector-effect="non-scaling-stroke" transform=" translate(0.98, -10.5)" d="M 0 0 C 0.33 0 0.66 0 1 0 C 2.10087193 7.01805857 2.09733092 13.90565767 2 21 C 0.02 21 -1.96 21 -4 21 C -3.29843593 13.84404654 -1.69214979 6.98144819 0 0 Z" stroke-linecap="round"/>
</g>
		<g transform="matrix(2.0765 0 0 2.235 -38.4705 202.5178)" id="591661">
<path style="stroke: none; stroke-width: 1; stroke-dasharray: none; stroke-linecap: butt; stroke-dashoffset: 0; stroke-linejoin: miter; stroke-miterlimit: 4; is-custom-font: none; font-file-url: none; fill: rgb(95,123,255); fill-rule: nonzero; opacity: 1;" vector-effect="non-scaling-stroke" transform=" translate(-2.5, -6)" d="M 0 0 C 0.763125 0.185625 1.52625 0.37125 2.3125 0.5625 C 5.08967375 1.22819173 5.08967375 1.22819173 8 0 C 7.979375 0.94875 7.95875 1.8975 7.9375 2.875 C 7.77448174 5.90666283 7.77448174 5.90666283 9 8 C 8.195625 8.28875 7.39125 8.5775 6.5625 8.875 C 3.8673532 9.73262568 3.8673532 9.73262568 3 12 C 2.34 12 1.68 12 1 12 C 1 10.68 1 9.36 1 8 C -0.65 7.67 -2.3 7.34 -4 7 C -3.525625 6.5875 -3.05125 6.175 -2.5625 5.75 C -0.83733482 3.817815 -0.43415125 2.51807725 0 0 Z" stroke-linecap="round"/>
</g>
		<g transform="matrix(2.0765 0 0 2.235 37.3217 201.4003)" id="591661">
<path style="stroke: none; stroke-width: 1; stroke-dasharray: none; stroke-linecap: butt; stroke-dashoffset: 0; stroke-linejoin: miter; stroke-miterlimit: 4; is-custom-font: none; font-file-url: none; fill: rgb(90,119,255); fill-rule: nonzero; opacity: 1;" vector-effect="non-scaling-stroke" transform=" translate(3, -6.5)" d="M 0 0 C 0.309375 0.94875 0.61875 1.8975 0.9375 2.875 C 1.87394742 5.86080408 1.87394742 5.86080408 3 8 C 2.01 8.33 1.02 8.66 0 9 C -1.68538601 10.99665314 -1.68538601 10.99665314 -3 13 C -3.66 12.01 -4.32 11.02 -5 10 C -7.05003955 8.80767387 -7.05003955 8.80767387 -9 8 C -8.835 7.38125 -8.67 6.7625 -8.5 6.125 C -7.92365356 4.03936614 -7.92365356 4.03936614 -8 2 C -1.125 0 -1.125 0 0 0 Z" stroke-linecap="round"/>
</g>
		<g transform="matrix(2.0765 0 0 2.235 -44.7817 -5.3372)" id="591661">
<path style="stroke: none; stroke-width: 1; stroke-dasharray: none; stroke-linecap: butt; stroke-dashoffset: 0; stroke-linejoin: miter; stroke-miterlimit: 4; is-custom-font: none; font-file-url: none; fill: rgb(234,234,234); fill-rule: nonzero; opacity: 1;" vector-effect="non-scaling-stroke" transform=" translate(-1.4607, -10)" d="M 0 0 C 0.33 0 0.66 0 1 0 C 1.50604924 2.39469729 2.00499517 4.79051717 2.5 7.1875 C 2.64308594 7.86103516 2.78617188 8.53457031 2.93359375 9.22851562 C 3.68069842 12.87509793 4.17352282 16.27648957 4 20 C 2.35 20 0.7 20 -1 20 C -1.02696009 17.2291017 -1.04681952 14.4584655 -1.0625 11.6875 C -1.07087891 10.90181641 -1.07925781 10.11613281 -1.08789062 9.30664062 C -1.09111328 8.54931641 -1.09433594 7.79199219 -1.09765625 7.01171875 C -1.10289307 6.31522217 -1.10812988 5.61872559 -1.11352539 4.90112305 C -1 3 -1 3 0 0 Z" stroke-linecap="round"/>
</g>
		<g transform="matrix(2.0765 0 0 2.235 60.0616 144.4078)" id="591661">
<path style="stroke: none; stroke-width: 1; stroke-dasharray: none; stroke-linecap: butt; stroke-dashoffset: 0; stroke-linejoin: miter; stroke-miterlimit: 4; is-custom-font: none; font-file-url: none; fill: rgb(225,225,225); fill-rule: nonzero; opacity: 1;" vector-effect="non-scaling-stroke" transform=" translate(-0.9512, -8)" d="M 0 0 C 0.99 0 1.98 0 3 0 C 3 4.95 3 9.9 3 15 C 1.68 15.33 0.36 15.66 -1 16 C -1.02692484 13.70839681 -1.04636124 11.41670454 -1.0625 9.125 C -1.07410156 7.84882813 -1.08570313 6.57265625 -1.09765625 5.2578125 C -1 2 -1 2 0 0 Z" stroke-linecap="round"/>
</g>
		<g transform="matrix(2.0765 0 0 2.235 -22.8968 143.2903)" id="591661">
<path style="stroke: none; stroke-width: 1; stroke-dasharray: none; stroke-linecap: butt; stroke-dashoffset: 0; stroke-linejoin: miter; stroke-miterlimit: 4; is-custom-font: none; font-file-url: none; fill: rgb(226,226,226); fill-rule: nonzero; opacity: 1;" vector-effect="non-scaling-stroke" transform=" translate(-2, -7.5)" d="M 0 0 C 1.32 0.33 2.64 0.66 4 1 C 4 5.62 4 10.24 4 15 C 2.68 15 1.36 15 0 15 C 0 10.05 0 5.1 0 0 Z" stroke-linecap="round"/>
</g>
		<g transform="matrix(2.0765 0 0 2.235 200.1765 33.7753)" id="591661">
<path style="stroke: none; stroke-width: 1; stroke-dasharray: none; stroke-linecap: butt; stroke-dashoffset: 0; stroke-linejoin: miter; stroke-miterlimit: 4; is-custom-font: none; font-file-url: none; fill: rgb(191,191,191); fill-rule: nonzero; opacity: 1;" vector-effect="non-scaling-stroke" transform=" translate(1.5725, -11.5)" d="M 0 0 C 0.92321855 3.03905386 1.02162761 5.39994788 0.66015625 8.546875 C 0.56669922 9.39121094 0.47324219 10.23554688 0.37695312 11.10546875 C 0.22129883 12.41451172 0.22129883 12.41451172 0.0625 13.75 C -0.03740234 14.63816406 -0.13730469 15.52632813 -0.24023438 16.44140625 C -0.48715401 18.62840871 -0.74061635 20.81444667 -1 23 C -1.33 23 -1.66 23 -2 23 C -2.2165625 21.6078125 -2.2165625 21.6078125 -2.4375 20.1875 C -2.92100111 16.99274889 -2.92100111 16.99274889 -4 14 C -3.43194903 11.5479609 -2.8054297 9.20959033 -2.0625 6.8125 C -1.76956055 5.83120117 -1.76956055 5.83120117 -1.47070312 4.83007812 C -0.98817437 3.21772593 -0.49509795 1.60853711 0 0 Z" stroke-linecap="round"/>
</g>
		<g transform="matrix(2.0765 0 0 2.235 227.0363 41.5978)" id="591661">
<path style="stroke: none; stroke-width: 1; stroke-dasharray: none; stroke-linecap: butt; stroke-dashoffset: 0; stroke-linejoin: miter; stroke-miterlimit: 4; is-custom-font: none; font-file-url: none; fill: rgb(215,215,215); fill-rule: nonzero; opacity: 1;" vector-effect="non-scaling-stroke" transform=" translate(2.6373, -8)" d="M 0 0 C 1.3809273 3.72673328 0.59902051 6.02657117 -0.75 9.6875 C -1.09546875 10.66074219 -1.4409375 11.63398438 -1.796875 12.63671875 C -3 15 -3 15 -6 16 C -5.37183502 12.05050296 -4.1354471 8.80107972 -2.4375 5.1875 C -1.98246094 4.21167969 -1.52742188 3.23585938 -1.05859375 2.23046875 C -0.70925781 1.49441406 -0.35992187 0.75835937 0 0 Z" stroke-linecap="round"/>
</g>
</g>
</g>
</svg>